<svg xmlns="http://www.w3.org/2000/svg" xmlns:xlink="http://www.w3.org/1999/xlink" width="500" zoomAndPan="magnify" viewBox="0 0 375 374.999991" height="500" preserveAspectRatio="xMidYMid meet" version="1.0"><path stroke-linecap="butt" transform="matrix(27.026788, 0.000000000000010935, -0.000000000000010957, 27.082282, 63.496092, 72.038791)" fill="none" stroke-linejoin="miter" d="M 0.0000000525248 0.0000100151 L 9.185476 0.0000100151 " stroke="#545154" stroke-width="1" stroke-opacity="1" stroke-miterlimit="4"/><path stroke-linecap="butt" transform="matrix(0.000000000000001651, 26.963886, -27.082282, 0.000000000000001658, 76.8727, 63.133517)" fill="none" stroke-linejoin="miter" d="M -0.0000261444 0.0000593193 L 5.84141 0.0000593193 " stroke="#545154" stroke-width="1" stroke-opacity="1" stroke-miterlimit="4"/><path stroke-linecap="butt" transform="matrix(27.026788, 0.000000000000010935, -0.000000000000010957, 27.082282, 63.496092, 212.103473)" fill="none" stroke-linejoin="miter" d="M 0.0000000525248 -0.0000705543 L 9.185476 -0.0000705543 " stroke="#545154" stroke-width="1" stroke-opacity="1" stroke-miterlimit="4"/><path stroke-linecap="butt" transform="matrix(0.000000000000001659, -27.098688, 27.082282, 0.000000000000001658, 298.123343, 162.517739)" fill="none" stroke-linejoin="miter" d="M -0.0000661405 0.000061172 L 3.681068 0.000061172 " stroke="#545154" stroke-width="1" stroke-opacity="1" stroke-miterlimit="4"/><path stroke-linecap="butt" transform="matrix(27.038059, 0, 0, 27.082282, 145.231562, 153.774264)" fill="none" stroke-linejoin="miter" d="M -0.0000404398 -0.0000304997 L 6.158235 -0.0000304997 " stroke="#545154" stroke-width="1" stroke-opacity="1" stroke-miterlimit="4"/><path stroke-linecap="butt" transform="matrix(0.000000000000001652, 26.980584, -27.082282, 0.000000000000001658, 153.973617, 140.232252)" fill="none" stroke-linejoin="miter" d="M -0.0000661083 0.0000354674 L 8.450745 0.0000354674 " stroke="#545154" stroke-width="1" stroke-opacity="1" stroke-miterlimit="4"/><path stroke-linecap="butt" transform="matrix(0.000000000000001647, 26.892257, -27.082282, 0.000000000000001658, 219.108945, 280.29584)" fill="none" stroke-linejoin="miter" d="M 0.0000384871 -0.000015866 L 3.263059 -0.000015866 " stroke="#545154" stroke-width="1" stroke-opacity="1" stroke-miterlimit="4"/><path stroke-linecap="butt" transform="matrix(0.000000000000001659, -27.098688, 27.082282, 0.000000000000001658, 298.123343, 302.582411)" fill="none" stroke-linejoin="miter" d="M 0.0000140258 0.000061172 L 3.681004 0.000061172 " stroke="#545154" stroke-width="1" stroke-opacity="1" stroke-miterlimit="4"/><path stroke-linecap="butt" transform="matrix(27.031284, 0, 0, 27.082282, 210.360005, 293.838936)" fill="none" stroke-linejoin="miter" d="M -0.0000233095 0.0000335217 L 3.74607 0.0000335217 " stroke="#545154" stroke-width="1" stroke-opacity="1" stroke-miterlimit="4"/><path stroke-linecap="butt" transform="matrix(0.000000000000001654, 27.013643, -27.082282, 0.000000000000001658, 15.930648, 1.965752)" fill="none" stroke-linejoin="miter" d="M -0.0000336044 0.0000354695 L 13.743456 0.0000354695 " stroke="#545154" stroke-width="1" stroke-opacity="1" stroke-miterlimit="4"/><path stroke-linecap="butt" transform="matrix(26.990589, 0, 0, 27.082282, 2.556674, 15.504044)" fill="none" stroke-linejoin="miter" d="M 0.0000711114 -0.00000509898 L 13.699435 -0.00000509898 " stroke="#545154" stroke-width="1" stroke-opacity="1" stroke-miterlimit="4"/><path stroke-linecap="butt" transform="matrix(0.000000000000001654, -27.013643, 27.082282, 0.000000000000001658, 359.057619, 373.028236)" fill="none" stroke-linejoin="miter" d="M 0.0000330409 0.0000360098 L 13.743522 0.0000360098 " stroke="#545154" stroke-width="1" stroke-opacity="1" stroke-miterlimit="4"/><path stroke-linecap="butt" transform="matrix(-27.007672, -0.000000000000003307, 0.000000000000003317, -27.082282, 167.509784, 359.489948)" fill="none" stroke-linejoin="miter" d="M -0.0000716407 0.0000615289 L 6.109737 0.0000615289 " stroke="#545154" stroke-width="1" stroke-opacity="1" stroke-miterlimit="4"/><path stroke-linecap="butt" transform="matrix(-27.007672, -0.000000000000003307, 0.000000000000003317, -27.082282, 370.683232, 359.489948)" fill="none" stroke-linejoin="miter" d="M -0.0000133885 0.0000615289 L 6.109796 0.0000615289 " stroke="#545154" stroke-width="1" stroke-opacity="1" stroke-miterlimit="4"/></svg>